<svg width="20" height="20" viewBox="0 0 20 20" fill="none" xmlns="http://www.w3.org/2000/svg">
<path fill-rule="evenodd" clip-rule="evenodd" d="M15 0C12.2386 0 10 2.23858 10 5C10 7.76142 12.2386 10 15 10C17.7615 10 20 7.76142 20 5C20 2.23858 17.7615 0 15 0ZM9.56 13.33C9.22 13.6 9 14.03 9 14.5V20H16C17.1 20 18 19.1 18 18V12.02C17.06 11.69 16.05 11.5 15 11.5C12.97 11.5 11.07 12.2 9.56 13.33ZM9.24 1.99999C8.77 2.89999 8.5 3.91999 8.5 4.99999C8.5 6.79999 9.23 8.41999 10.41 9.58999L0.59 19.41C0.23 19.05 0 18.55 0 18V3.99999C0 2.89999 0.9 1.99999 2 1.99999H9.24Z" fill="#444444" fill-opacity="0.54"/>
</svg>
